HIERARCHY
ROOT mixamorig:Hips
{
	OFFSET -0.000008 104.274872 1.554316
	CHANNELS 6 Xposition Yposition Zposition Xrotation Yrotation Zrotation
	JOINT mixamorig:Spine
	{
		OFFSET -0.000005 10.181595 0.131519
		CHANNELS 6 Xposition Yposition Zposition Xrotation Yrotation Zrotation
		JOINT mixamorig:Spine1
		{
			OFFSET -0.000000 9.893959 -1.470707
			CHANNELS 6 Xposition Yposition Zposition Xrotation Yrotation Zrotation
			JOINT mixamorig:Spine2
			{
				OFFSET -0.000000 9.220757 -1.370641
				CHANNELS 6 Xposition Yposition Zposition Xrotation Yrotation Zrotation
				JOINT mixamorig:Neck
				{
					OFFSET 0.000001 16.740417 -2.049036
					CHANNELS 6 Xposition Yposition Zposition Xrotation Yrotation Zrotation
					JOINT mixamorig:Head
					{
						OFFSET 0.000000 9.617874 1.685006
						CHANNELS 6 Xposition Yposition Zposition Xrotation Yrotation Zrotation
						JOINT mixamorig:HeadTop_End
						{
							OFFSET 0.000002 22.037354 7.501101
							CHANNELS 6 Xposition Yposition Zposition Xrotation Yrotation Zrotation
							End Site
							{
								OFFSET 0.000168 2310.654297 -282.823242
							}
						}
					}
				}
				JOINT mixamorig:RightShoulder
				{
					OFFSET -4.569970 11.014908 -2.160885
					CHANNELS 6 Xposition Yposition Zposition Xrotation Yrotation Zrotation
					JOINT mixamorig:RightArm
					{
						OFFSET -10.592851 -0.524811 -2.232101
						CHANNELS 6 Xposition Yposition Zposition Xrotation Yrotation Zrotation
						JOINT mixamorig:RightForeArm
						{
							OFFSET -27.841511 0.000031 -0.000004
							CHANNELS 6 Xposition Yposition Zposition Xrotation Yrotation Zrotation
							JOINT mixamorig:RightHand
							{
								OFFSET -28.328831 -0.000015 0.000015
								CHANNELS 6 Xposition Yposition Zposition Xrotation Yrotation Zrotation
								JOINT mixamorig:RightHandThumb1
								{
									OFFSET -2.464806 -1.573990 2.681852
									CHANNELS 6 Xposition Yposition Zposition Xrotation Yrotation Zrotation
									JOINT mixamorig:RightHandThumb2
									{
										OFFSET -3.215179 -1.872803 1.924282
										CHANNELS 6 Xposition Yposition Zposition Xrotation Yrotation Zrotation
										JOINT mixamorig:RightHandThumb3
										{
											OFFSET -2.654831 -1.527969 1.512609
											CHANNELS 6 Xposition Yposition Zposition Xrotation Yrotation Zrotation
											JOINT mixamorig:RightHandThumb4
											{
												OFFSET -2.018814 -1.152008 1.108052
												CHANNELS 6 Xposition Yposition Zposition Xrotation Yrotation Zrotation
												End Site
												{
													OFFSET -188.809540 -114.533607 132.431396
												}
											}
										}
									}
								}
								JOINT mixamorig:RightHandIndex1
								{
									OFFSET -9.108284 -0.517868 2.259835
									CHANNELS 6 Xposition Yposition Zposition Xrotation Yrotation Zrotation
									JOINT mixamorig:RightHandIndex2
									{
										OFFSET -3.699989 0.000000 0.001215
										CHANNELS 6 Xposition Yposition Zposition Xrotation Yrotation Zrotation
										JOINT mixamorig:RightHandIndex3
										{
											OFFSET -2.850006 0.000031 -0.000522
											CHANNELS 6 Xposition Yposition Zposition Xrotation Yrotation Zrotation
											JOINT mixamorig:RightHandIndex4
											{
												OFFSET -2.772186 -0.000015 -0.000020
												CHANNELS 6 Xposition Yposition Zposition Xrotation Yrotation Zrotation
												End Site
												{
													OFFSET -277.218445 0.000000 -0.050231
												}
											}
										}
									}
								}
								JOINT mixamorig:RightHandMiddle1
								{
									OFFSET -9.532516 -0.000031 -0.000023
									CHANNELS 6 Xposition Yposition Zposition Xrotation Yrotation Zrotation
									JOINT mixamorig:RightHandMiddle2
									{
										OFFSET -3.700005 -0.000015 0.003713
										CHANNELS 6 Xposition Yposition Zposition Xrotation Yrotation Zrotation
										JOINT mixamorig:RightHandMiddle3
										{
											OFFSET -2.949974 0.000015 -0.002054
											CHANNELS 6 Xposition Yposition Zposition Xrotation Yrotation Zrotation
											JOINT mixamorig:RightHandMiddle4
											{
												OFFSET -2.946640 0.000000 -0.000156
												CHANNELS 6 Xposition Yposition Zposition Xrotation Yrotation Zrotation
												End Site
												{
													OFFSET -294.664337 0.000000 -0.113670
												}
											}
										}
									}
								}
								JOINT mixamorig:RightHandRing1
								{
									OFFSET -9.103600 -0.043076 -1.865134
									CHANNELS 6 Xposition Yposition Zposition Xrotation Yrotation Zrotation
									JOINT mixamorig:RightHandRing2
									{
										OFFSET -3.379288 0.000000 -0.001055
										CHANNELS 6 Xposition Yposition Zposition Xrotation Yrotation Zrotation
										JOINT mixamorig:RightHandRing3
										{
											OFFSET -2.889687 -0.000015 0.000379
											CHANNELS 6 Xposition Yposition Zposition Xrotation Yrotation Zrotation
											JOINT mixamorig:RightHandRing4
											{
												OFFSET -2.638809 -0.000015 0.000941
												CHANNELS 6 Xposition Yposition Zposition Xrotation Yrotation Zrotation
												End Site
												{
													OFFSET -263.880371 0.000000 0.516020
												}
											}
										}
									}
								}
								JOINT mixamorig:RightHandPinky1
								{
									OFFSET -8.076683 -0.486710 -3.806280
									CHANNELS 6 Xposition Yposition Zposition Xrotation Yrotation Zrotation
									JOINT mixamorig:RightHandPinky2
									{
										OFFSET -3.600014 -0.000015 -0.003747
										CHANNELS 6 Xposition Yposition Zposition Xrotation Yrotation Zrotation
										JOINT mixamorig:RightHandPinky3
										{
											OFFSET -2.099983 0.000000 -0.005739
											CHANNELS 6 Xposition Yposition Zposition Xrotation Yrotation Zrotation
											JOINT mixamorig:RightHandPinky4
											{
												OFFSET -2.115768 -0.000031 -0.003680
												CHANNELS 6 Xposition Yposition Zposition Xrotation Yrotation Zrotation
												End Site
												{
													OFFSET -211.577087 0.000000 -0.350686
												}
											}
										}
									}
								}
							}
						}
					}
				}
				JOINT mixamorig:LeftShoulder
				{
					OFFSET 4.570447 11.014725 -2.160855
					CHANNELS 6 Xposition Yposition Zposition Xrotation Yrotation Zrotation
					JOINT mixamorig:LeftArm
					{
						OFFSET 10.592371 -0.524597 -2.232119
						CHANNELS 6 Xposition Yposition Zposition Xrotation Yrotation Zrotation
						JOINT mixamorig:LeftForeArm
						{
							OFFSET 27.841532 -0.000031 0.000026
							CHANNELS 6 Xposition Yposition Zposition Xrotation Yrotation Zrotation
							JOINT mixamorig:LeftHand
							{
								OFFSET 28.328846 -0.000061 0.000022
								CHANNELS 6 Xposition Yposition Zposition Xrotation Yrotation Zrotation
								JOINT mixamorig:LeftHandThumb1
								{
									OFFSET 2.466141 -1.576172 2.681732
									CHANNELS 6 Xposition Yposition Zposition Xrotation Yrotation Zrotation
									JOINT mixamorig:LeftHandThumb2
									{
										OFFSET 3.217812 -1.872070 1.916482
										CHANNELS 6 Xposition Yposition Zposition Xrotation Yrotation Zrotation
										JOINT mixamorig:LeftHandThumb3
										{
											OFFSET 2.656029 -1.528778 1.514513
											CHANNELS 6 Xposition Yposition Zposition Xrotation Yrotation Zrotation
											JOINT mixamorig:LeftHandThumb4
											{
												OFFSET 2.020889 -1.154053 1.115139
												CHANNELS 6 Xposition Yposition Zposition Xrotation Yrotation Zrotation
												End Site
												{
													OFFSET 190.885437 -115.081749 130.048782
												}
											}
										}
									}
								}
								JOINT mixamorig:LeftHandIndex1
								{
									OFFSET 9.109314 -0.518021 2.259871
									CHANNELS 6 Xposition Yposition Zposition Xrotation Yrotation Zrotation
									JOINT mixamorig:LeftHandIndex2
									{
										OFFSET 3.699989 0.000000 -0.000322
										CHANNELS 6 Xposition Yposition Zposition Xrotation Yrotation Zrotation
										JOINT mixamorig:LeftHandIndex3
										{
											OFFSET 2.850006 0.000000 0.000352
											CHANNELS 6 Xposition Yposition Zposition Xrotation Yrotation Zrotation
											JOINT mixamorig:LeftHandIndex4
											{
												OFFSET 2.774864 -0.000031 -0.000027
												CHANNELS 6 Xposition Yposition Zposition Xrotation Yrotation Zrotation
												End Site
												{
													OFFSET 277.486267 0.000000 -0.009857
												}
											}
										}
									}
								}
								JOINT mixamorig:LeftHandMiddle1
								{
									OFFSET 9.533394 0.000061 0.000044
									CHANNELS 6 Xposition Yposition Zposition Xrotation Yrotation Zrotation
									JOINT mixamorig:LeftHandMiddle2
									{
										OFFSET 3.699989 -0.000015 -0.000231
										CHANNELS 6 Xposition Yposition Zposition Xrotation Yrotation Zrotation
										JOINT mixamorig:LeftHandMiddle3
										{
											OFFSET 2.949997 -0.000015 -0.000059
											CHANNELS 6 Xposition Yposition Zposition Xrotation Yrotation Zrotation
											JOINT mixamorig:LeftHandMiddle4
											{
												OFFSET 2.952896 0.000031 0.000063
												CHANNELS 6 Xposition Yposition Zposition Xrotation Yrotation Zrotation
												End Site
												{
													OFFSET 295.289337 0.000000 0.022810
												}
											}
										}
									}
								}
								JOINT mixamorig:LeftHandRing1
								{
									OFFSET 9.104523 -0.042999 -1.865074
									CHANNELS 6 Xposition Yposition Zposition Xrotation Yrotation Zrotation
									JOINT mixamorig:LeftHandRing2
									{
										OFFSET 3.150009 -0.000031 0.000043
										CHANNELS 6 Xposition Yposition Zposition Xrotation Yrotation Zrotation
										JOINT mixamorig:LeftHandRing3
										{
											OFFSET 2.949982 -0.000015 0.000040
											CHANNELS 6 Xposition Yposition Zposition Xrotation Yrotation Zrotation
											JOINT mixamorig:LeftHandRing4
											{
												OFFSET 2.644348 0.000000 0.000057
												CHANNELS 6 Xposition Yposition Zposition Xrotation Yrotation Zrotation
												End Site
												{
													OFFSET 264.434631 0.000000 0.012105
												}
											}
										}
									}
								}
								JOINT mixamorig:LeftHandPinky1
								{
									OFFSET 8.077789 -0.486847 -3.806259
									CHANNELS 6 Xposition Yposition Zposition Xrotation Yrotation Zrotation
									JOINT mixamorig:LeftHandPinky2
									{
										OFFSET 3.599953 0.000031 0.014727
										CHANNELS 6 Xposition Yposition Zposition Xrotation Yrotation Zrotation
										JOINT mixamorig:LeftHandPinky3
										{
											OFFSET 2.100021 0.000015 0.007705
											CHANNELS 6 Xposition Yposition Zposition Xrotation Yrotation Zrotation
											JOINT mixamorig:LeftHandPinky4
											{
												OFFSET 2.125504 0.000031 0.007517
												CHANNELS 6 Xposition Yposition Zposition Xrotation Yrotation Zrotation
												End Site
												{
													OFFSET 212.550781 0.000000 0.625752
												}
											}
										}
									}
								}
							}
						}
					}
				}
			}
		}
	}
	JOINT mixamorig:RightUpLeg
	{
		OFFSET -8.207787 -6.751648 -1.599560
		CHANNELS 6 Xposition Yposition Zposition Xrotation Yrotation Zrotation
		JOINT mixamorig:RightLeg
		{
			OFFSET -0.000002 -44.370117 0.345942
			CHANNELS 6 Xposition Yposition Zposition Xrotation Yrotation Zrotation
			JOINT mixamorig:RightFoot
			{
				OFFSET 0.000003 -44.423679 -3.043532
				CHANNELS 6 Xposition Yposition Zposition Xrotation Yrotation Zrotation
				JOINT mixamorig:RightToeBase
				{
					OFFSET -0.000002 -8.728671 10.710558
					CHANNELS 6 Xposition Yposition Zposition Xrotation Yrotation Zrotation
					JOINT mixamorig:RightToe_End
					{
						OFFSET -0.000001 -0.000679 9.278119
						CHANNELS 6 Xposition Yposition Zposition Xrotation Yrotation Zrotation
						End Site
						{
							OFFSET 0.000000 -0.067690 927.812134
						}
					}
				}
			}
		}
	}
	JOINT mixamorig:LeftUpLeg
	{
		OFFSET 8.207793 -6.751686 -1.599556
		CHANNELS 6 Xposition Yposition Zposition Xrotation Yrotation Zrotation
		JOINT mixamorig:LeftLeg
		{
			OFFSET -0.000004 -44.370014 0.346954
			CHANNELS 6 Xposition Yposition Zposition Xrotation Yrotation Zrotation
			JOINT mixamorig:LeftFoot
			{
				OFFSET -0.000001 -44.423672 -3.044401
				CHANNELS 6 Xposition Yposition Zposition Xrotation Yrotation Zrotation
				JOINT mixamorig:LeftToeBase
				{
					OFFSET -0.000002 -8.728669 10.710558
					CHANNELS 6 Xposition Yposition Zposition Xrotation Yrotation Zrotation
					JOINT mixamorig:LeftToe_End
					{
						OFFSET -0.000003 -0.000679 9.278133
						CHANNELS 6 Xposition Yposition Zposition Xrotation Yrotation Zrotation
						End Site
						{
							OFFSET 0.000000 -0.068021 927.813477
						}
					}
				}
			}
		}
	}
}
MOTION
Frames: 3
Frame Time: 0.033333
0.000006 104.270477 1.554256 0.000010 0.000003 -0.000113 -0.000005 10.181587 0.131522 0.000001 -0.000003 0.000084 -0.000000 9.893967 -1.470711 0.000001 0.000000 -0.000000 -0.000000 9.220802 -1.370642 0.000000 -0.000000 -0.000000 0.000001 16.740433 -2.049030 0.000000 -0.000000 -0.000000 0.000000 9.617859 1.685014 0.000000 0.000000 0.000000 0.000002 22.037384 7.501101 0.000000 -0.000000 0.000000 -4.569968 11.014880 -2.160881 0.000008 0.000001 -0.000038 -10.592806 -0.524837 -2.231769 67.533598 59.990952 -42.207967 -27.841476 0.000011 0.000587 37.027559 105.330424 -47.404580 -28.328829 0.000009 0.000031 -0.000317 -0.000044 0.000007 -2.464414 -1.574109 2.682170 37.184171 -111.892938 86.238747 -3.214792 -1.872948 1.924690 190.561677 -47.948737 -111.001782 -2.654468 -1.527982 1.513159 155.078557 -26.310973 -151.254976 -2.018830 -1.151987 1.108072 -0.000004 0.000003 0.000004 -9.108204 -0.517723 2.260433 26.197947 163.831991 -117.159423 -3.699942 0.000117 0.001807 212.170893 17.921180 -302.675926 -2.849981 0.000117 0.000056 216.915156 15.696731 -315.121159 -2.772180 -0.000016 -0.000002 0.000000 -0.000002 0.000001 -9.532428 0.000087 0.000564 25.286431 163.241972 -113.317415 -3.699910 0.000159 0.004308 22.171848 166.343383 -117.243380 -2.949962 0.000083 -0.001477 32.502008 166.430851 -135.604814 -2.946624 0.000014 -0.000170 0.000001 -0.000003 -0.000000 -9.103587 -0.043057 -1.864566 -194.721330 14.829855 269.849900 -3.379247 0.000369 -0.000822 97.635546 -3.209684 3.652212 -2.889643 0.000164 0.000340 24.810479 -13.708238 3.025318 -2.638808 0.000009 0.000942 0.000001 0.000001 -0.000000 -8.076705 -0.486622 -3.805740 163.407932 9.546673 -58.619013 -3.599778 0.000350 -0.003547 -256.941826 -26.782586 -326.478753 -2.099875 -0.000016 -0.005795 -0.343994 -20.652276 -0.099569 -2.115786 -0.000056 -0.003682 -0.000000 0.000001 -0.000002 4.570446 11.014691 -2.160851 -0.000018 0.000010 -0.000021 10.592517 -0.524534 -2.232394 67.330468 -60.047280 42.104086 27.841757 -0.000057 -0.000116 48.706782 -103.271067 59.523412 28.328831 -0.000028 0.000021 0.000024 -0.000090 0.000000 2.466097 -1.576211 2.681877 -123.839635 426.151785 -285.213947 3.217674 -1.872067 1.916540 -192.069974 52.816658 142.774176 2.655722 -1.528726 1.514615 -47.079118 -200.278632 377.339347 2.020891 -1.154066 1.115149 0.000000 0.000002 0.000002 9.109388 -0.518028 2.259926 -7.176427 -166.610881 -56.327966 3.700006 0.000000 -0.000277 174.319787 -12.551740 -228.406539 2.850139 0.000116 0.000398 -10.700475 -168.934812 -448.079999 2.774905 -0.000034 -0.000036 0.000004 0.000001 0.000002 9.533541 0.000250 0.000059 159.579706 -9.599513 409.941861 3.700116 0.000236 -0.000214 159.142083 -8.467491 43.804998 2.950150 0.000245 -0.000040 341.912931 -171.572754 -130.303822 2.952873 -0.000025 0.000059 -0.000000 0.000001 0.000003 9.104641 -0.042767 -1.865105 146.039826 -12.093957 38.271981 3.149995 0.000063 -0.000098 37.047872 9.750018 -3.273488 2.949977 -0.000001 0.000029 -12.272195 15.329415 1.657433 2.644327 0.000046 0.000072 -0.000001 0.000001 -0.000001 8.077886 -0.486583 -3.806296 -37.546127 -168.959428 -146.569589 3.599900 0.000113 0.014527 52.972198 22.282908 -11.111149 2.099988 0.000003 0.007702 -14.879808 22.341656 2.822259 2.125500 -0.000017 0.007512 0.000002 -0.000002 -0.000002 -8.207786 -6.751667 -1.599560 -0.077001 -0.000003 0.000080 -0.000002 -44.370110 0.345938 0.153719 -0.000000 -0.000000 0.000000 -44.423679 -3.043532 -0.076700 0.000000 -0.000002 -0.000006 -8.728667 10.710559 -0.000009 -0.000000 -0.000000 -0.000001 -0.000679 9.278123 0.000000 -0.000000 -0.000000 8.207792 -6.751710 -1.599556 -0.074518 -0.000003 0.000081 -0.000002 -44.370014 0.346960 0.148822 0.000002 0.000000 -0.000001 -44.423664 -3.044403 -0.074314 0.000000 -0.000002 -0.000004 -8.728671 10.710558 0.000007 -0.000000 -0.000000 0.000000 -0.000680 9.278137 -0.000000 0.000000 -0.000001 
0.000006 104.270477 1.554256 0.000010 0.000003 -0.000113 -0.000005 10.181587 0.131522 0.000001 -0.000003 0.000084 -0.000000 9.893967 -1.470711 0.000001 0.000000 -0.000000 -0.000000 9.220802 -1.370642 0.000000 -0.000000 -0.000000 0.000001 16.740433 -2.049030 0.000000 -0.000000 -0.000000 0.000000 9.617859 1.685014 0.000000 0.000000 0.000000 0.000002 22.037384 7.501101 0.000000 -0.000000 0.000000 -4.569968 11.014880 -2.160881 0.000008 0.000001 -0.000038 -10.592810 -0.524829 -2.231772 67.572236 60.281699 -42.461910 -27.841478 0.000001 0.000586 36.453389 104.984768 -46.441933 -28.328829 0.000007 0.000017 -0.000321 -0.000044 0.000007 -2.464424 -1.574130 2.682199 32.626724 -115.218967 83.775596 -3.214813 -1.872961 1.924703 197.988128 -45.907020 -101.048189 -2.654495 -1.528083 1.513157 171.166426 -29.834365 -125.678595 -2.018826 -1.152001 1.108038 -0.000003 0.000001 0.000005 -9.108263 -0.517800 2.260409 38.340492 160.077805 -126.361546 -3.699985 0.000065 0.001772 225.722603 21.310870 -311.917637 -2.850027 0.000032 0.000006 230.490826 16.778851 -325.265220 -2.772166 -0.000014 -0.000021 -0.000000 -0.000000 0.000001 -9.532431 0.000080 0.000559 26.257406 160.483149 -107.130069 -3.699909 0.000156 0.004310 24.089145 164.295146 -114.326090 -2.949952 0.000096 -0.001462 27.872354 167.865054 -133.634208 -2.946618 0.000000 -0.000169 0.000001 0.000004 0.000000 -9.103523 -0.043120 -1.864566 -190.207012 17.428553 240.730509 -3.379225 0.000402 -0.000824 103.433140 -5.921361 7.481256 -2.889553 0.000291 0.000392 56.835852 -23.268872 12.704193 -2.638809 -0.000015 0.000938 0.000002 0.000002 -0.000000 -8.076652 -0.486677 -3.805726 167.900147 10.457639 -80.408382 -3.599762 0.000350 -0.003434 -234.711200 -25.241217 -312.993173 -2.099656 0.000189 -0.005778 45.569530 -51.968570 23.092584 -2.115774 -0.000057 -0.003679 -0.000001 0.000001 -0.000004 4.570446 11.014691 -2.160851 -0.000018 0.000010 -0.000021 10.592516 -0.524534 -2.232395 67.172329 -60.402259 42.263561 27.841766 -0.000065 -0.000115 48.163878 -103.043184 58.699868 28.328838 -0.000029 0.000030 0.000020 -0.000089 0.000000 2.466124 -1.576181 2.681872 -136.605996 421.098975 -276.351639 3.217697 -1.872069 1.916548 -185.250098 49.600714 131.829222 2.655768 -1.528766 1.514633 -38.633367 -206.167798 358.708886 2.020884 -1.154080 1.115140 0.000002 0.000005 0.000002 9.109446 -0.517930 2.259910 -14.242077 -165.030758 -87.194912 3.700078 0.000038 -0.000276 169.783026 -13.887568 -252.429831 2.850127 0.000161 0.000397 -12.444168 -169.166341 -457.980522 2.774871 -0.000031 -0.000028 -0.000000 0.000001 0.000000 9.533545 0.000221 0.000043 155.798787 -14.515153 421.381499 3.700125 0.000251 -0.000239 153.132267 -10.409347 41.737483 2.950120 0.000281 -0.000080 333.803885 -171.882025 -146.065371 2.952870 -0.000016 0.000065 0.000000 -0.000001 0.000001 9.104650 -0.042767 -1.865116 139.910196 -16.056112 42.274483 3.149981 0.000041 -0.000071 34.642631 7.103084 -2.217457 2.949979 -0.000008 0.000025 -9.801844 16.406666 1.416082 2.644326 0.000033 0.000057 -0.000000 -0.000000 -0.000000 8.077904 -0.486586 -3.806304 -38.948986 -166.780529 -142.076336 3.599917 0.000128 0.014555 56.812455 23.360838 -12.654198 2.099988 -0.000008 0.007676 -10.136709 26.815505 2.291114 2.125498 -0.000023 0.007506 0.000002 -0.000001 -0.000004 -8.207786 -6.751667 -1.599560 -0.077001 -0.000003 0.000080 -0.000002 -44.370110 0.345938 0.153719 -0.000000 -0.000000 0.000000 -44.423679 -3.043532 -0.076700 0.000000 -0.000002 -0.000006 -8.728667 10.710559 -0.000009 -0.000000 -0.000000 -0.000001 -0.000679 9.278123 0.000000 -0.000000 -0.000000 8.207792 -6.751710 -1.599556 -0.074518 -0.000003 0.000081 -0.000002 -44.370014 0.346960 0.148822 0.000002 0.000000 -0.000001 -44.423664 -3.044403 -0.074314 0.000000 -0.000002 -0.000004 -8.728671 10.710558 0.000007 -0.000000 -0.000000 0.000000 -0.000680 9.278137 -0.000000 0.000000 -0.000001 
0.000006 104.270477 1.554256 0.000010 0.000003 -0.000113 -0.000005 10.181587 0.131522 0.000001 -0.000003 0.000084 -0.000000 9.893967 -1.470711 0.000001 0.000000 -0.000000 -0.000000 9.220802 -1.370642 0.000000 -0.000000 -0.000000 0.000001 16.740433 -2.049030 0.000000 -0.000000 -0.000000 0.000000 9.617859 1.685014 0.000000 0.000000 0.000000 0.000002 22.037384 7.501101 0.000000 -0.000000 0.000000 -4.569968 11.014880 -2.160881 0.000008 0.000001 -0.000038 -10.592808 -0.524838 -2.231773 67.574388 59.993834 -42.239864 -27.841492 0.000005 0.000586 36.463918 104.884747 -46.379781 -28.328835 0.000022 0.000017 -0.000326 -0.000043 0.000006 -2.464408 -1.574117 2.682212 28.830280 -115.010359 79.802919 -3.214812 -1.872973 1.924687 198.785184 -46.307812 -100.460239 -2.654490 -1.528061 1.513145 171.017036 -30.672009 -126.586218 -2.018810 -1.152003 1.108051 -0.000005 0.000005 -0.000002 -9.108243 -0.517776 2.260422 36.141878 161.300176 -126.409316 -3.699972 0.000061 0.001778 224.508168 19.055108 -315.414639 -2.850028 0.000019 0.000011 230.596831 14.854328 -329.163536 -2.772165 0.000000 -0.000028 -0.000002 0.000000 0.000001 -9.532423 0.000077 0.000574 24.835201 162.410588 -109.729216 -3.699926 0.000134 0.004317 25.384734 166.092510 -123.239849 -2.949963 0.000071 -0.001475 29.479240 169.787165 -142.491120 -2.946625 0.000015 -0.000157 -0.000001 -0.000001 0.000000 -9.103519 -0.043093 -1.864559 -190.605103 16.955926 244.097082 -3.379231 0.000387 -0.000801 103.471178 -5.983522 7.565071 -2.889579 0.000317 0.000405 61.603819 -22.990063 13.813374 -2.638813 -0.000002 0.000941 -0.000002 -0.000002 0.000002 -8.076608 -0.486685 -3.805719 169.499846 10.456606 -88.450745 -3.599778 0.000354 -0.003418 -232.490487 -22.583665 -315.658695 -2.099662 0.000275 -0.005723 66.638720 -48.979013 33.315528 -2.115776 -0.000042 -0.003689 0.000003 0.000000 -0.000003 4.570446 11.014691 -2.160851 -0.000018 0.000010 -0.000021 10.592516 -0.524522 -2.232399 67.526269 -60.117522 42.300963 27.841753 -0.000070 -0.000121 48.432349 -103.292883 59.227712 28.328840 -0.000028 0.000027 0.000022 -0.000088 -0.000000 2.466109 -1.576184 2.681871 -130.231695 423.667509 -280.765581 3.217688 -1.872064 1.916550 -187.899870 48.767226 134.864763 2.655764 -1.528772 1.514649 -37.647050 -206.329592 356.652425 2.020902 -1.154068 1.115157 0.000005 0.000003 0.000004 9.109427 -0.517965 2.259914 -13.013706 -164.677555 -80.669343 3.699974 -0.000043 -0.000257 174.852884 -15.023240 -217.518098 2.850048 0.000021 0.000418 -5.317717 -169.359158 -413.021894 2.774886 -0.000049 -0.000020 -0.000001 -0.000002 0.000004 9.533548 0.000196 0.000061 159.047525 -15.264059 431.814941 3.700134 0.000183 -0.000207 161.260589 -11.231018 61.563746 2.950135 0.000235 -0.000039 343.390984 -172.904723 -133.953670 2.952888 -0.000032 0.000070 0.000003 0.000003 -0.000003 9.104658 -0.042778 -1.865107 141.299429 -16.715592 45.408993 3.149980 0.000064 -0.000103 34.175333 9.724289 -2.995479 2.949964 -0.000017 0.000014 -8.704484 20.953589 1.612241 2.644328 0.000032 0.000064 0.000000 -0.000001 0.000002 8.077902 -0.486595 -3.806298 -37.511064 -167.945049 -143.755524 3.599887 0.000072 0.014567 40.853083 30.408593 -11.543673 2.099976 0.000014 0.007687 -15.193314 29.945390 3.925242 2.125509 -0.000040 0.007518 0.000002 0.000002 -0.000002 -8.207786 -6.751667 -1.599560 -0.077001 -0.000003 0.000080 -0.000002 -44.370110 0.345938 0.153719 -0.000000 -0.000000 0.000000 -44.423679 -3.043532 -0.076700 0.000000 -0.000002 -0.000006 -8.728667 10.710559 -0.000009 -0.000000 -0.000000 -0.000001 -0.000679 9.278123 0.000000 -0.000000 -0.000000 8.207792 -6.751710 -1.599556 -0.074518 -0.000003 0.000081 -0.000002 -44.370014 0.346960 0.148822 0.000002 0.000000 -0.000001 -44.423664 -3.044403 -0.074314 0.000000 -0.000002 -0.000004 -8.728671 10.710558 0.000007 -0.000000 -0.000000 0.000000 -0.000680 9.278137 -0.000000 0.000000 -0.000001 
